<?xml version="1.0" encoding="utf-8"?>
<svg xmlns="http://www.w3.org/2000/svg" width="1800" height="900" viewBox="0 0 1800 900" xmlns:bx="https://boxy-svg.com">
  <title>Poliver AI Logo</title>
  <desc>Simple flat logo: gavel on base at left; text "Poliver AI" with the 'O' replaced by a robot head. Transparent background.</desc>
  <defs>
    <style>
      .brand{ fill:#4a3426; }
      .text{ fill:#4a3426; font-family: "Inter", "Poppins", "SF Pro Display", "Segoe UI", Arial, Helvetica, sans-serif; font-weight: 700; }
    </style>
    <bx:export>
      <bx:file format="svg" path="Poliver AI Logo.svg"/>
    </bx:export>
  </defs>
  <g transform="matrix(1, 0, 0, 1, 106.277802, 149.356628)"/>
  <g transform="matrix(1.321487, 0, 0, 1.321487, 228.084198, 553.213562)" style="">
    <text class="text" style="font-size: 220px; white-space: pre;" x="-123.07" y="201.663"><tspan style="fill: rgb(43, 117, 226); word-spacing: 0px;" x="108.339" y="245.107">oliver</tspan><tspan style="word-spacing: 0px;"> </tspan><tspan style="fill: rgb(0, 0, 0); word-spacing: 0px;">AI</tspan></text>
    <path d="M 9.541 -248.14 L 85.888 -248.14 L 85.888 -190.28 C 89.675 -194.43 95.114 -197.02 101.164 -197.02 L 106.492 -197.02 C 121.064 -236.82 154.524 -268.73 197.14 -283.78 C 198.755 -290.77 202.609 -297.21 208.301 -302.33 C 216.005 -309.22 226.448 -313.09 237.338 -313.09 L 250.848 -313.09 L 250.848 -354.6 C 246.733 -355.86 242.948 -358.13 239.851 -361.23 C 234.864 -366.2 232.063 -372.96 232.063 -380.04 C 232.063 -387.07 234.864 -393.84 239.851 -398.82 C 244.839 -403.83 251.604 -406.61 258.657 -406.61 C 265.712 -406.61 272.476 -403.83 277.463 -398.82 C 282.451 -393.84 285.252 -387.07 285.252 -380.04 C 285.252 -372.96 282.451 -366.2 277.463 -361.23 C 274.285 -358.04 270.389 -355.74 266.154 -354.51 L 266.154 -313.09 L 273.267 -313.09 C 284.156 -313.09 294.6 -309.22 302.304 -302.33 C 308.575 -296.69 312.608 -289.44 313.889 -281.66 C 354.991 -265.36 386.808 -233.18 400.067 -193.55 L 404.651 -193.55 C 416.093 -193.55 425.365 -184.28 425.365 -172.85 L 425.365 -118.07 C 425.365 -106.64 416.093 -97.37 404.651 -97.37 L 394.65 -97.37 C 386.99 -80.751 375.849 -65.486 361.65 -52.502 C 332.749 -26.072 293.548 -11.204 252.672 -11.204 C 187.37 -11.204 131.553 -48.359 109.103 -100.84 L 101.164 -100.84 C 95.114 -100.84 89.675 -103.42 85.888 -107.56 L 85.888 249.771 L 9.541 249.771 L 9.541 -248.14 Z M 344.201 -151.41 C 344.201 -138.33 333.595 -127.73 320.518 -127.73 C 307.437 -127.73 296.834 -138.33 296.834 -151.41 C 296.834 -164.48 307.437 -175.1 320.518 -175.1 C 333.595 -175.1 344.201 -164.48 344.201 -151.41 Z M 210.063 -152.03 C 210.063 -138.96 199.459 -128.36 186.38 -128.36 C 173.3 -128.36 162.697 -138.96 162.697 -152.03 C 162.697 -165.12 173.3 -175.71 186.38 -175.71 C 199.459 -175.71 210.063 -165.12 210.063 -152.03 Z M 123.327 -164.42 L 123.327 -139.26 C 123.327 -119.24 139.555 -103.03 159.576 -103.03 L 345.04 -103.03 C 365.06 -103.03 381.29 -119.24 381.29 -139.26 L 381.29 -164.42 C 381.29 -184.42 365.06 -200.68 345.04 -200.68 L 159.576 -200.68 C 139.555 -200.68 123.327 -184.42 123.327 -164.42 Z" style="stroke: rgb(0, 0, 0); stroke-width: 0px; stroke-opacity: 0; fill: rgb(43, 117, 226);"/>
  </g>
</svg>