<?xml version="1.0" encoding="utf-8"?>
<svg xmlns="http://www.w3.org/2000/svg" viewBox="42.4922 235.1748 362.1138 403.0421" width="362.1138px" height="403.0421px"><defs><style>
      .brand{ fill:#4a3426; }
      .text{ fill:#4a3426; font-family: "Inter", "Poppins", "SF Pro Display", "Segoe UI", Arial, Helvetica, sans-serif; font-weight: 700; }
    </style></defs><path d="M 231.686 286.026 C 243.795 295.643 245.284 312.833 235.01 324.422 L 234.767 324.696 C 224.493 336.284 206.348 337.882 194.238 328.265 L 103.141 255.918 C 93.019 261.216 80.15 260.447 70.845 253.058 L 6.317 201.811 C -5.792 192.194 -7.281 175.004 2.993 163.415 L 29.984 132.971 C 40.257 121.383 58.403 119.785 70.512 129.402 L 135.041 180.649 C 145.652 189.076 148.108 203.32 141.639 214.513 Z M 129.686 61.46 L 181.463 102.58 C 193.572 112.198 195.061 129.388 184.787 140.976 L 173.845 153.318 C 163.572 164.906 145.426 166.504 133.317 156.886 L 81.54 115.766 C 69.43 106.149 67.942 88.959 78.215 77.371 L 89.157 65.029 C 99.431 53.441 117.576 51.843 129.686 61.46 Z M 0.791 217.341 L 52.568 258.461 C 64.678 268.078 66.166 285.268 55.892 296.856 L 44.951 309.198 C 34.677 320.786 16.531 322.384 4.422 312.767 L -47.355 271.647 C -59.465 262.03 -60.953 244.839 -50.679 233.251 L -39.738 220.91 C -29.464 209.321 -11.319 207.723 0.791 217.341 Z M 237.047 363.865 C 248.093 363.865 257.047 372.819 257.047 383.865 L 257.047 392.589 L 284.606 392.589 C 295.652 392.589 304.606 401.543 304.606 412.589 L 304.606 438.217 C 304.606 449.263 295.652 458.217 284.606 458.217 L -32.001 458.217 C -43.047 458.217 -52.001 449.263 -52.001 438.217 L -52.001 412.589 C -52.001 401.543 -43.047 392.589 -32.001 392.589 L -17.806 392.589 L -17.806 383.865 C -17.806 372.819 -8.852 363.865 2.194 363.865 Z" class="brand" style="fill: rgb(0, 0, 0);" id="object-0" transform="matrix(1, 0, 0, 1, 100.00000762939453, 179.99996948242188)"/></svg>