<?xml version="1.0" encoding="utf-8"?>
<svg xmlns="http://www.w3.org/2000/svg" width="1800" height="900" viewBox="0 0 1800 900" xmlns:bx="https://boxy-svg.com"><title>Poliver AI Logo</title><desc>Simple flat logo: gavel on base at left; text "Poliver AI" with the 'O' replaced by a robot head. Transparent background.</desc><defs><style>
      .brand{ fill:#4a3426; }
      .text{ fill:#4a3426; font-family: "Inter", "Poppins", "SF Pro Display", "Segoe UI", Arial, Helvetica, sans-serif; font-weight: 700; }
    </style><bx:export><bx:file format="svg" path="Poliver AI Logo.svg"/><bx:file format="svg" href="#object-0"/><bx:file format="svg" href="#object-1" path="Untitled 2.svg"/></bx:export></defs><g transform="translate(100,180) scale(1)"><path d="M 231.686 286.026 C 243.795 295.643 245.284 312.833 235.01 324.422 L 234.767 324.696 C 224.493 336.284 206.348 337.882 194.238 328.265 L 103.141 255.918 C 93.019 261.216 80.15 260.447 70.845 253.058 L 6.317 201.811 C -5.792 192.194 -7.281 175.004 2.993 163.415 L 29.984 132.971 C 40.257 121.383 58.403 119.785 70.512 129.402 L 135.041 180.649 C 145.652 189.076 148.108 203.32 141.639 214.513 L 231.686 286.026 Z M 129.686 61.46 L 181.463 102.58 C 193.572 112.198 195.061 129.388 184.787 140.976 L 173.845 153.318 C 163.572 164.906 145.426 166.504 133.317 156.886 L 81.54 115.766 C 69.43 106.149 67.942 88.959 78.215 77.371 L 89.157 65.029 C 99.431 53.441 117.576 51.843 129.686 61.46 Z M 0.791 217.341 L 52.568 258.461 C 64.678 268.078 66.166 285.268 55.892 296.856 L 44.951 309.198 C 34.677 320.786 16.531 322.384 4.422 312.767 L -47.355 271.647 C -59.465 262.03 -60.953 244.839 -50.679 233.251 L -39.738 220.91 C -29.464 209.321 -11.319 207.723 0.791 217.341 Z" class="brand" style="fill: rgb(0, 0, 0);" id="object-0"/><path d="M 237.047 363.865 C 248.093 363.865 257.047 372.819 257.047 383.865 L 257.047 392.589 L 284.606 392.589 C 295.652 392.589 304.606 401.543 304.606 412.589 L 304.606 438.217 C 304.606 449.263 295.652 458.217 284.606 458.217 L -32.001 458.217 C -43.047 458.217 -52.001 449.263 -52.001 438.217 L -52.001 412.589 C -52.001 401.543 -43.047 392.589 -32.001 392.589 L -17.806 392.589 L -17.806 383.865 C -17.806 372.819 -8.852 363.865 2.194 363.865 Z" class="brand" style="fill: rgb(0, 0, 0);" id="object-1"/></g><g transform="matrix(1.321487, 0, 0, 1.321487, 221.806427, 583.856934)" style=""><text class="text" style="fill: rgb(0, 0, 0); font-size: 220px; white-space: pre;" x="143.616" y="-16.414">P</text><g transform="matrix(0.526425, 0, 0, 0.526425, 296.581024, -108.62851)" style=""><path d="M 48 0 L 152 0 C 178.51 0 200 21.49 200 48 L 200 70.683 C 201.251 70.241 202.597 70 204 70 L 216 70 C 222.627 70 228 75.373 228 82 L 228 118 C 228 124.627 222.627 130 216 130 L 204 130 C 202.597 130 201.251 129.759 200 129.317 L 200 152 C 200 178.51 178.51 200 152 200 L 48 200 C 21.49 200 0 178.51 0 152 L 0 129.317 C -1.251 129.759 -2.597 130 -4 130 L -16 130 C -22.627 130 -28 124.627 -28 118 L -28 82 C -28 75.373 -22.627 70 -16 70 L -4 70 C -2.597 70 -1.251 70.241 0 70.683 L 0 48 C 0 21.49 21.49 0 48 0 Z M 116 -48 C 116 -39.163 108.837 -32 100 -32 C 91.163 -32 84 -39.163 84 -48 C 84 -56.837 91.163 -64 100 -64 C 108.837 -64 116 -56.837 116 -48 Z" class="brand" style="fill: rgb(130, 183, 65);"/><path class="brand" d="M 100 -38 H 100 A 10 0 0 0 0 110 -38 V 10 A 10 0 0 0 0 100 10 H 100 A 10 0 0 0 0 90 10 V -38 A 10 0 0 0 0 100 -38 Z" bx:shape="rect 90 -38 20 48 2 10 0 2 10 0 2 10 0 2 10 0 2@11087835" style="fill: rgb(130, 183, 65);"/><rect x="38" y="68" width="36" height="36" rx="10" fill="#ffffff"/><rect x="126" y="68" width="36" height="36" rx="10" fill="#ffffff"/><rect x="62" y="130" width="76" height="28" rx="12" fill="#ffffff"/></g><text class="text" style="font-size: 220px; white-space: pre;"><tspan style="fill: rgb(0, 0, 0);" x="420" y="0">liver</tspan><tspan> </tspan><tspan style="fill: rgb(130, 183, 65);">AI</tspan></text></g></svg>