<?xml version="1.0" encoding="utf-8"?>
<svg xmlns="http://www.w3.org/2000/svg" viewBox="0 0 500 500">
  <rect x="-0.993" y="-1.274" width="500.704" height="500.312" style="stroke: rgb(0, 0, 0); fill: rgb(255, 255, 255); stroke-opacity: 0; stroke-width: 0px;"/>
  <path d="M 135.887 156.619 L 179.067 156.619 L 179.067 189.342 C 181.209 186.995 184.285 185.53 187.707 185.53 L 190.72 185.53 C 198.961 163.02 217.884 144.973 241.988 136.461 C 242.901 132.507 245.08 128.869 248.3 125.971 C 252.657 122.076 258.563 119.887 264.723 119.887 L 272.364 119.887 L 272.364 96.408 C 270.035 95.697 267.895 94.41 266.144 92.657 C 263.323 89.848 261.739 86.025 261.739 82.023 C 261.739 78.045 263.323 74.216 266.144 71.4 C 268.965 68.568 272.791 66.993 276.78 66.993 C 280.77 66.993 284.595 68.568 287.415 71.4 C 290.238 74.216 291.82 78.045 291.82 82.023 C 291.82 86.025 290.238 89.848 287.415 92.657 C 285.619 94.463 283.414 95.764 281.02 96.455 L 281.02 119.887 L 285.042 119.887 C 291.202 119.887 297.108 122.076 301.463 125.971 C 305.012 129.162 307.293 133.259 308.016 137.662 C 331.264 146.88 349.258 165.078 356.756 187.492 L 359.35 187.492 C 365.821 187.492 371.064 192.735 371.064 199.2 L 371.064 230.182 C 371.064 236.646 365.821 241.889 359.35 241.889 L 353.693 241.889 C 349.36 251.289 343.06 259.923 335.029 267.266 C 318.683 282.214 296.513 290.622 273.395 290.622 C 236.463 290.622 204.894 269.608 192.197 239.927 L 187.707 239.927 C 184.285 239.927 181.209 238.468 179.067 236.127 L 179.067 438.221 L 135.887 438.221 L 135.887 156.619 Z M 325.161 211.327 C 325.161 218.725 319.162 224.718 311.766 224.718 C 304.368 224.718 298.37 218.725 298.37 211.327 C 298.37 203.935 304.368 197.928 311.766 197.928 C 319.162 197.928 325.161 203.935 325.161 211.327 Z M 249.296 210.976 C 249.296 218.368 243.298 224.362 235.901 224.362 C 228.504 224.362 222.508 218.368 222.508 210.976 C 222.508 203.573 228.504 197.583 235.901 197.583 C 243.298 197.583 249.296 203.573 249.296 210.976 Z M 200.241 203.968 L 200.241 218.198 C 200.241 229.522 209.42 238.689 220.742 238.689 L 325.636 238.689 C 336.958 238.689 346.137 229.522 346.137 218.198 L 346.137 203.968 C 346.137 192.656 336.958 183.461 325.636 183.461 L 220.742 183.461 C 209.42 183.461 200.241 192.656 200.241 203.968 Z" style="stroke: rgb(0, 0, 0); stroke-width: 0px; stroke-opacity: 0; fill: rgb(43, 117, 226);"/>
</svg>